<svg width="40" height="40" viewBox="0 0 40 40" fill="none" xmlns="http://www.w3.org/2000/svg">
<g id="discord">
<rect id="Rectangle 34" width="40" height="40" fill="#111314"/>
<g id="Group">
<path id="Vector" d="M11.2374 6.35346C7.82117 7.25248 4.89038 9.62587 3.21821 12.8264C2.26526 14.6604 0.934719 19.0116 0.431271 21.9064C-0.198039 25.4485 -0.144098 27.0488 0.629054 28.5951C1.72585 30.7707 5.21403 32.6227 8.84604 32.9103L10.0327 33.0002L11.0756 31.7236C12.0645 30.501 12.2084 30.0874 11.6689 30.0874C11.1116 30.0874 8.5224 28.5951 7.55146 27.732C6.97609 27.2286 6.54457 26.7791 6.58053 26.7431C6.61649 26.7071 7.2458 26.9409 7.98299 27.2825C12.4061 29.3143 18.2318 30.465 22.1515 30.0874C25.4778 29.7638 27.5635 29.1345 30.8 27.4623L32.6879 26.4914L31.663 27.4803C30.746 28.3434 28.948 29.3682 27.2399 30.0335C26.8083 30.1773 26.8263 30.2133 27.8512 31.5079L28.8761 32.8384L30.1527 32.7305C32.0046 32.5687 33.3711 32.1732 35.2231 31.2562C37.7044 30.0335 38.8192 28.7209 39.2507 26.5273C39.6822 24.1899 37.9022 16.3865 36.1401 12.8983C35.0613 10.7766 33.2093 8.83474 31.1056 7.63006C29.0739 6.46134 25.3879 5.63425 24.9024 6.20962C24.7226 6.42538 24.9204 6.55124 26.179 6.98277C27.8872 7.55814 30.4224 8.7808 31.8069 9.69779C32.8497 10.399 33.0835 10.6507 32.2923 10.2372C31.2675 9.73376 28.2468 8.67292 26.5386 8.25937C24.0034 7.61208 22.0975 7.39632 19.0948 7.4143C15.0313 7.4143 11.1655 8.16947 7.6054 9.66183L6.07708 10.3091L6.70639 9.76972C7.74925 8.90666 10.3204 7.64804 12.532 6.92883C13.6827 6.55124 14.5638 6.17366 14.4919 6.11972C14.2761 5.88597 12.55 6.01184 11.2374 6.35346ZM14.9953 18.2564C16.6135 19.1554 17.2428 21.2771 16.4157 23.0032C15.4268 25.017 12.7657 25.5204 11.1295 24.0101C9.65516 22.6256 9.58323 20.3601 10.9857 18.8677C11.9926 17.8069 13.7187 17.5372 14.9953 18.2564ZM26.9702 18.0586C28.1569 18.5081 29.1817 20.0365 29.1817 21.367C29.1817 22.248 28.6783 23.3628 27.995 24.0101C25.8194 26.0239 22.3492 24.4057 22.3492 21.367C22.3492 18.9037 24.7226 17.1956 26.9702 18.0586Z" fill="white"/>
</g>
</g>
</svg>
