<svg width="32" height="26" viewBox="0 0 32 26" fill="none" xmlns="http://www.w3.org/2000/svg">
<path d="M1.47336 0.000150251C0.949474 -0.00748043 0.462185 0.276014 0.198076 0.742084C-0.0660254 1.20815 -0.0660254 1.78458 0.198076 2.25065C0.462178 2.71672 0.949467 3.00021 1.47336 2.99258H30.5266C31.0505 3.00021 31.5378 2.71672 31.8019 2.25065C32.066 1.78458 32.066 1.20815 31.8019 0.742084C31.5378 0.276014 31.0505 -0.00748043 30.5266 0.000150251H1.47336ZM1.47336 11.2217C0.949474 11.2141 0.462185 11.4976 0.198076 11.9637C-0.0660254 12.4297 -0.0660254 13.0062 0.198076 13.4722C0.462178 13.9383 0.949467 14.2218 1.47336 14.2142H30.5266C31.0505 14.2218 31.5378 13.9383 31.8019 13.4722C32.066 13.0062 32.066 12.4297 31.8019 11.9637C31.5378 11.4976 31.0505 11.2141 30.5266 11.2217H1.47336ZM1.47336 22.4433C0.949474 22.4357 0.462185 22.7192 0.198076 23.1852C-0.0660254 23.6513 -0.0660254 24.2277 0.198076 24.6938C0.462178 25.1599 0.949467 25.4434 1.47336 25.4357H30.5266C31.0505 25.4434 31.5378 25.1599 31.8019 24.6938C32.066 24.2277 32.066 23.6513 31.8019 23.1852C31.5378 22.7192 31.0505 22.4357 30.5266 22.4433H1.47336Z" fill="white"/>
</svg>
