<svg width="46" height="50" viewBox="0 0 46 50" fill="none" xmlns="http://www.w3.org/2000/svg">
<g id="logo">
<path id="Vector" d="M21.3292 0.118763C20.4525 0.321899 19.6614 0.706783 17.908 1.76522C14.1126 4.06386 7.12048 8.12656 4.81115 9.37744C2.63012 10.5535 1.50753 11.6012 0.748451 13.1729C-0.0213234 14.7552 5.92317e-05 14.3275 5.92317e-05 24.9119C5.92317e-05 35.2184 5.92186e-05 35.1435 0.598773 36.5013C1.29371 38.0836 2.75842 39.4735 4.97152 40.6495C5.50609 40.9382 6.39347 41.4407 6.94941 41.7721C8.27514 42.5633 10.114 43.6431 12.2416 44.8726C13.1825 45.4179 14.4226 46.1556 15 46.4977C15.5773 46.8398 16.0691 47.1178 16.0905 47.1178C16.1226 47.1178 16.6785 47.4599 17.3414 47.8876C20.0677 49.6089 20.7305 49.8868 22.3021 49.9831C24.1624 50.0793 24.8787 49.8227 28.439 47.7058C29.3477 47.1712 30.6948 46.3694 31.4325 45.9417C32.1702 45.5141 33.2714 44.8619 33.8915 44.4877C34.5116 44.1242 35.26 43.6966 35.5487 43.5255C36.265 43.1299 39.0234 41.5369 41.0547 40.3395C43.1609 39.0993 44.0162 38.2975 44.6791 36.961C45.4595 35.368 45.4381 35.7208 45.4381 24.8264C45.4381 14.2741 45.4488 14.5734 44.8501 13.2477C44.508 12.51 43.5244 11.2057 42.9578 10.7459C42.3804 10.2969 42.1987 10.1793 41.0013 9.53781C40.4774 9.24915 39.0768 8.45799 37.9008 7.77375C36.7247 7.0895 34.8965 6.03106 33.8381 5.42165C32.7796 4.81225 30.6414 3.56137 29.0804 2.64191C25.8944 0.74955 25.6699 0.631947 24.697 0.289825C23.8096 -0.00953293 22.238 -0.0950623 21.3292 0.118763ZM23.9272 2.72744C24.2693 2.84505 25.2743 3.34754 26.151 3.87141C27.0277 4.3846 28.3748 5.16506 29.1339 5.6141C29.9037 6.05244 30.8659 6.61908 31.2722 6.86498C32.5444 7.62407 33.4532 8.13725 35.2814 9.17431C38.6812 11.0881 40.8943 12.3924 41.322 12.7452C41.8993 13.2049 42.2949 13.8036 42.6477 14.691L42.9257 15.418L42.9578 24.3987C42.9791 30.0224 42.9471 33.7109 42.8829 34.2775C42.7653 35.2504 42.4553 36.0309 41.9207 36.6831C41.3755 37.3566 41.5786 37.2283 34.9072 41.0772C31.7746 42.884 30.7697 43.472 28.0434 45.0971C26.3862 46.0914 24.8467 46.9895 24.6222 47.0964C23.9165 47.4492 23.243 47.5775 22.4091 47.5241C21.4148 47.4599 21.0299 47.2675 16.9993 44.8512C15.3849 43.889 13.268 42.6381 12.2951 42.0715C8.51035 39.8798 7.16324 39.11 5.88028 38.3937C3.77409 37.2283 2.82257 36.1164 2.56597 34.5448C2.42699 33.7323 2.42699 17.1393 2.56597 15.8671C2.63012 15.2042 2.75842 14.7231 2.97224 14.2634C3.59234 12.927 4.08414 12.5528 7.80472 10.5321C8.34998 10.2327 11.7177 8.30831 12.0812 8.09449C12.1668 8.04103 13.1076 7.50646 14.1661 6.90775C15.2245 6.30904 17.0313 5.2506 18.1753 4.56635C20.6984 3.04818 20.8374 2.97334 21.65 2.73814C22.4946 2.49223 23.1468 2.49223 23.9272 2.72744Z" fill="#F8F9FD"/>
<path id="Vector_2" d="M21.96 6.21282C21.3399 6.40527 19.9287 7.18573 15.7163 9.65543C14.5082 10.3611 12.3913 11.5799 11.0121 12.371C8.23237 13.9426 7.78334 14.2099 7.15255 14.6483C6.66075 14.9904 5.93374 16.0595 5.76268 16.6903C5.58093 17.3318 5.59162 32.6738 5.77337 33.326C5.96581 34.0423 6.24379 34.5127 6.75697 34.9938C7.28085 35.4856 7.35568 35.5391 9.1839 36.5869C9.9216 37.0038 11.5467 37.9447 12.7762 38.6717C15.0214 39.9867 17.2024 41.259 20.0784 42.9054C21.8317 43.9211 22.4839 44.1242 23.3499 43.9211C23.831 43.8142 25.2316 43.0444 29.5615 40.5213C30.2672 40.115 31.3256 39.4949 31.9136 39.1528C32.5017 38.8106 33.7739 38.0836 34.7468 37.5277C35.7197 36.9824 36.5857 36.4906 36.6713 36.4372C36.7568 36.373 37.0775 36.1913 37.3662 36.0202C39.002 35.058 39.6114 34.192 39.7824 32.5883C39.8894 31.5299 39.8894 22.4636 39.7824 18.8393C39.7183 16.5941 39.6862 16.3375 39.4724 15.9312C38.9485 14.9262 38.4781 14.5414 36.0619 13.1836C33.667 11.8471 31.4218 10.5642 28.7062 9.00326C25.0284 6.88638 24.5366 6.61909 23.9593 6.38388C23.243 6.10591 22.4946 6.04176 21.96 6.21282ZM24.0876 9.35607C24.6863 9.70888 25.424 10.1152 25.7127 10.2862C26.012 10.4466 26.7818 10.8742 27.4233 11.2484C28.7597 12.0075 32.9935 14.4024 34.8965 15.4608C36.4361 16.3161 37.0134 16.8079 37.1845 17.3746C37.3769 18.0267 37.3662 32.2462 37.1631 32.7166C36.9279 33.2939 36.3719 33.7216 34.5865 34.7373C33.6456 35.2718 32.0312 36.202 31.0049 36.8007C29.9785 37.4101 28.9628 37.9981 28.7597 38.105C27.4019 38.8748 25.1567 40.1684 24.4297 40.5961C23.9593 40.8741 23.382 41.2055 23.1574 41.3338L22.7298 41.5583L21.7141 41.0024C21.1475 40.703 19.052 39.4949 17.0527 38.3188C12.7227 35.7743 9.62224 33.9675 9.5474 33.9675C9.34427 33.9675 8.51035 33.2298 8.33929 32.8983C8.13615 32.4921 8.12546 32.2569 8.12546 25.1151C8.12546 19.8977 8.15753 17.6418 8.24306 17.3852C8.40343 16.9255 8.8097 16.4872 9.35496 16.1664C9.59017 16.0381 12.1454 14.5948 15.0214 12.959C17.908 11.3233 20.7412 9.69819 21.3292 9.36676C21.9279 9.01395 22.5374 8.74667 22.6977 8.73597C22.8795 8.73597 23.4461 8.99257 24.0876 9.35607Z" fill="#FCA25B"/>
<path id="Vector_3" d="M22.4411 12.9483C22.2914 13.0232 21.5003 13.4722 20.677 13.9426C19.8645 14.413 17.8866 15.5463 16.2829 16.4658C12.9686 18.3688 12.1881 18.8499 12.0064 19.0851C11.8139 19.331 11.8139 30.5997 12.0064 30.9525C12.124 31.177 13.2787 31.8826 16.3364 33.6039C16.9885 33.9781 17.6086 34.2882 17.6942 34.2882C17.8332 34.2882 17.8545 33.8178 17.8332 30.5141L17.8011 26.7508L16.9779 26.2162C16.5181 25.9169 15.7697 25.4358 15.3207 25.1471L14.4868 24.6125V22.6346C14.4868 20.785 14.4975 20.6568 14.6792 20.6888C14.9251 20.7316 21.1047 24.3239 21.3934 24.5912C21.5858 24.7729 21.5965 24.9974 21.5965 30.8563V36.9289L21.9279 37.0038C22.3877 37.0893 23.6492 37.0786 23.7989 36.9824C23.8951 36.9289 23.9379 35.2183 23.97 30.8456C24.002 24.9654 24.0127 24.7729 24.2159 24.5698C24.3335 24.4629 25.0284 24.0245 25.7661 23.5969C26.5038 23.1692 27.9258 22.346 28.9307 21.7686C29.9357 21.1913 30.8124 20.7102 30.8766 20.7102C30.9728 20.7102 31.0049 21.2768 31.0049 22.7309V24.7622L29.7005 25.4785C28.9735 25.8741 28.2037 26.3125 27.9899 26.4514L27.5836 26.6973V30.4928C27.5836 33.3687 27.6157 34.2882 27.7119 34.2882C28.0327 34.2882 33.0576 31.4229 33.389 31.0594C33.5601 30.8563 33.5708 30.4072 33.5708 24.976V19.1172L33.218 18.8499C32.8438 18.5613 30.5344 17.2035 26.7818 15.0652C25.4881 14.3275 24.141 13.547 23.7775 13.3332C22.9543 12.82 22.7832 12.7666 22.4411 12.9483ZM23.9058 16.2305C26.7925 17.8877 28.4496 18.9248 28.4069 19.0317C28.3106 19.3203 22.9115 22.4529 22.6656 22.3674C22.5801 22.3353 22.0028 22.0039 21.3827 21.651C18.0256 19.6945 17.1596 19.1493 17.1596 18.9996C17.1596 18.8499 18.7205 17.8342 20.2066 17.0217C20.5915 16.8079 21.2651 16.4337 21.7034 16.1771C22.1418 15.9205 22.6015 15.696 22.7298 15.696C22.8581 15.6853 23.382 15.9312 23.9058 16.2305Z" fill="#F8F9FD"/>
<ellipse id="Ellipse 28" cx="23" cy="19" rx="6" ry="4" fill="#F8F9FD"/>
</g>
</svg>
