<svg width="40" height="40" viewBox="0 0 40 40" fill="none" xmlns="http://www.w3.org/2000/svg">
<g id="OK">
<rect id="Rectangle 31" width="40" height="40" fill="#111314"/>
<g id="Group">
<path id="Vector" d="M17.8102 3.18341C16.4345 3.47106 15.0213 4.25897 13.9332 5.34704C12.2323 7.02292 11.4944 8.81135 11.5069 11.1751C11.5194 12.3382 11.5694 12.7009 11.8571 13.5513C12.3198 14.8895 12.9452 15.8901 13.9457 16.8781C15.409 18.3163 17.3725 19.1418 19.4361 19.1543C20.8743 19.1668 21.7873 18.9542 23.138 18.3038C26.8524 16.5154 28.5784 12.1506 27.1151 8.24856C25.7018 4.5091 21.7248 2.33296 17.8102 3.18341ZM21.212 7.51067C23.6007 8.61125 24.2636 11.7629 22.5127 13.7014C21.7248 14.5769 20.9869 14.9145 19.7237 14.9646C18.8358 15.0146 18.6231 14.9771 17.9478 14.6769C16.472 14.0141 15.6341 12.7259 15.6341 11.1126C15.6466 9.2866 16.5846 7.96091 18.348 7.33558C19.2109 7.03543 20.299 7.09796 21.212 7.51067Z" fill="white"/>
<path id="Vector_2" d="M11.0692 19.3294C10.0687 19.8172 9.68096 21.2429 10.2938 22.1434C10.7065 22.7437 12.1823 23.8193 13.2953 24.332C14.2709 24.7948 16.0343 25.2825 17.2099 25.4326L17.9228 25.5202L14.8462 28.6968C13.1453 30.4352 11.682 31.9986 11.5945 32.1486C11.3818 32.5488 11.3944 33.1992 11.632 33.6994C11.8946 34.2622 12.62 34.85 13.1578 34.9501C14.0332 35.1127 14.3584 34.8876 16.9348 32.3112C18.273 30.973 19.4611 29.8724 19.5611 29.8724C19.6612 29.8724 20.7868 30.923 22.0624 32.1987C24.3386 34.4748 25.0015 35.0001 25.6143 35.0001C26.3147 35.0001 27.1401 34.4498 27.5153 33.7245C27.7529 33.2742 27.7404 32.3737 27.4903 31.9986C27.3777 31.8235 25.9019 30.2977 24.2011 28.5843C21.7748 26.1455 21.187 25.4951 21.4246 25.4951C22.0249 25.4951 24.2636 24.9699 25.2016 24.6072C26.8274 23.9819 28.5533 22.7187 29.0286 21.8182C29.4288 21.0553 28.8785 19.7296 27.9905 19.3044C27.2652 18.9667 26.6273 19.1043 25.2891 19.9047C24.6513 20.2924 23.5882 20.7927 22.9379 21.0053C21.8999 21.3555 21.5372 21.418 20.0364 21.468C17.3975 21.5556 16.1719 21.2054 13.0702 19.492C12.3073 19.0668 11.707 19.0168 11.0692 19.3294Z" fill="white"/>
</g>
</g>
</svg>
