<svg width="59" height="59" viewBox="0 0 59 59" fill="none" xmlns="http://www.w3.org/2000/svg">
<g id="plus-18-movie-svgrepo-com 1" clip-path="url(#clip0_58_164)">
<g id="_x34_4-18Plus_movie">
<g id="Group">
<path id="Vector" d="M18.664 39.5472V23.5291H14.961V19.4243H23.7736V39.5472H18.664Z" fill="white"/>
</g>
<g id="Group_2">
<path id="Vector_2" d="M42.9771 24.6199C42.9771 26.3709 42.0298 27.921 40.451 28.7823C42.6611 29.7007 44.0392 31.6241 44.0392 33.8631C44.0392 37.4799 40.824 39.7765 35.8007 39.7765C30.7771 39.7765 27.5621 37.5086 27.5621 33.9494C27.5621 31.6528 29.0548 29.7007 31.3799 28.7823C29.6863 27.8349 28.5955 26.2276 28.5955 24.4766C28.5955 21.2613 31.4088 19.2234 35.7719 19.2234C40.1925 19.2234 42.9771 21.3189 42.9771 24.6199ZM32.3846 33.4327C32.3846 35.1265 33.5904 36.0737 35.8007 36.0737C38.0109 36.0737 39.2452 35.1554 39.2452 33.4327C39.2452 31.768 38.0109 30.8204 35.8007 30.8204C33.5902 30.8204 32.3846 31.7678 32.3846 33.4327ZM32.9015 24.907C32.9015 26.3426 33.9348 27.146 35.8007 27.146C37.6665 27.146 38.6999 26.3424 38.6999 24.907C38.6999 23.4147 37.6665 22.582 35.8007 22.582C33.9346 22.582 32.9015 23.4147 32.9015 24.907Z" fill="white"/>
</g>
<g id="Group_3">
<path id="Vector_3" d="M52.5418 21.6959C53.3913 24.2031 53.8222 26.8255 53.8222 29.5001C53.8222 42.911 42.9114 53.8218 29.5003 53.8218C16.0892 53.8218 5.17823 42.911 5.17823 29.5001C5.17823 16.0888 16.089 5.17837 29.5001 5.17837C32.1751 5.17837 34.7974 5.60895 37.3043 6.4588V1.0463C34.7721 0.352174 32.1569 0 29.5003 0C13.2341 0 0.000396729 13.2337 0.000396729 29.5001C0.000396729 45.7665 13.2341 59.0002 29.5003 59.0002C45.7665 59.0002 59 45.7665 59 29.5001C59 26.8436 58.648 24.2282 57.9539 21.6959H52.5418Z" fill="white"/>
</g>
<g id="Group_4">
<path id="Vector_4" d="M51.0695 7.91382V2.25732H47.002V7.91382H41.3795V11.9809H47.002V17.6373H51.0695V11.9809H56.7257V7.91382H51.0695Z" fill="white"/>
</g>
</g>
</g>
<defs>
<clipPath id="clip0_58_164">
<rect width="59" height="59" fill="white"/>
</clipPath>
</defs>
</svg>
