<svg width="40" height="40" viewBox="0 0 40 40" fill="none" xmlns="http://www.w3.org/2000/svg">
<g id="telegram">
<rect id="Rectangle 33" width="40" height="40" fill="#111314"/>
<g id="Group">
<path id="Vector" d="M29.864 6.43983C26.55 7.77387 19.0934 10.7368 13.2938 13.0539C1.72277 17.6458 1.89128 17.5615 2.03171 18.6147C2.07384 18.9237 2.2283 19.3168 2.38277 19.4573C2.53724 19.6117 4.67171 20.5105 7.12915 21.4513L11.5947 23.1645L12.8164 27.7845C13.4904 30.3262 14.1083 32.5449 14.1926 32.7275C14.3891 33.1488 15.1896 33.5419 15.653 33.4156C15.8496 33.3734 17.1555 32.5168 18.5598 31.5198L21.1015 29.6943L25.7496 32.8539C29.6955 35.5219 30.4679 35.9994 30.9032 35.9994C31.4368 35.9994 31.9564 35.7326 32.167 35.3253C32.4057 34.876 37.9666 5.35855 37.8683 5.00749C37.8262 4.81089 37.6296 4.50196 37.447 4.3194C36.8151 3.68749 36.4079 3.79983 29.864 6.43983ZM29.0917 10.4981C28.516 11.0739 25.1598 14.3037 21.6491 17.6739C18.1385 21.0441 15.1896 23.9649 15.1053 24.1615L14.9509 24.5266L14.7964 24.0492C14.7121 23.7824 14.5436 23.1645 14.4172 22.659C14.2909 22.1675 14.0943 21.5917 13.9819 21.3811C13.7713 20.9739 13.35 20.7773 9.5866 19.3449C8.14022 18.7832 7.49426 18.4883 7.62064 18.4041C7.87341 18.2496 29.8219 9.48706 30.0045 9.47302C30.0747 9.45897 29.6674 9.92238 29.0917 10.4981ZM34.0628 10.6105C33.9504 11.1722 33.0096 16.1573 31.9704 21.676C30.9172 27.1947 30.0185 31.8288 29.9623 31.9551C29.8781 32.1658 28.9513 31.59 24.3172 28.4445C21.27 26.3802 18.7704 24.6109 18.7704 24.5407C18.7704 24.3862 33.9925 9.62749 34.1611 9.61344C34.2172 9.5994 34.1611 10.0628 34.0628 10.6105ZM17.1274 26.9981C17.8296 27.4756 18.4194 27.9109 18.4194 27.9811C18.4194 28.1215 16.5096 29.5398 16.327 29.5398C16.2709 29.5398 16.004 28.7394 15.7513 27.7424C15.4985 26.7594 15.2598 25.8607 15.2177 25.7483C15.1755 25.6079 15.2598 25.636 15.4845 25.8326C15.667 26.0011 16.4113 26.5207 17.1274 26.9981Z" fill="white"/>
</g>
</g>
</svg>
