<svg width="40" height="40" viewBox="0 0 40 40" fill="none" xmlns="http://www.w3.org/2000/svg">
<g id="twitch">
<rect id="Rectangle 30" width="40" height="40" fill="#111314"/>
<g id="Group">
<path id="Vector" d="M7.78125 5.60941C7.65234 5.94925 7.19531 7.15628 6.77344 8.293L6 10.3555L6.02344 20.7149L6.05859 31.0742L9.66796 31.1094L13.2656 31.1328V33.0664V35H15.2344H17.1914L19.125 33.0664L21.0586 31.1328H23.9883H26.9179L30.8789 27.1719L34.8281 23.2227V14.1055V5.00003H21.4219H8.0039L7.78125 5.60941ZM32.1328 14.8203V22.0625L29.8711 24.3125L27.6094 26.5625H23.9883H20.3555L18.457 28.4609L16.5469 30.3711V28.4727V26.5625L13.5937 26.5391L10.6289 26.5039L10.5937 17.1875C10.582 12.0664 10.5937 7.80081 10.6289 7.71878C10.6641 7.61331 12.9375 7.57815 21.4101 7.57815H32.1328V14.8203Z" fill="white"/>
<path id="Vector_2" d="M17.8359 16.7773V20.7031H19.125H20.414V16.7773V12.8516H19.125H17.8359V16.7773Z" fill="white"/>
<path id="Vector_3" d="M24.9844 16.7773V20.7031H26.2734H27.5625V16.7773V12.8516H26.2734H24.9844V16.7773Z" fill="white"/>
</g>
</g>
</svg>
