<svg width="40" height="40" viewBox="0 0 40 40" fill="none" xmlns="http://www.w3.org/2000/svg">
<g id="Vk">
<rect id="Rectangle 32" width="40" height="40" fill="#111314"/>
<g id="Group">
<path id="Vector" d="M16.0728 10.0995C15.1056 10.2506 14.5011 10.5226 14.078 10.976C13.7304 11.3689 13.8362 11.5503 14.486 11.6712C15.1509 11.7921 15.7252 12.4268 15.967 13.2731C16.239 14.195 16.239 18.5776 15.967 19.3936C15.6043 20.5422 15.4985 20.6782 14.9091 20.6782C13.7757 20.6782 12.1587 18.3207 9.71047 13.122C9.09086 11.8072 8.78861 11.3236 8.47125 11.1574C8.12366 10.976 7.45871 10.9458 4.78381 10.976C1.79155 11.0214 1.4893 11.0516 1.21728 11.3236C0.930143 11.6107 0.930143 11.6259 1.20217 12.4117C2.4565 15.9329 6.26483 22.4917 9.19664 26.164C10.995 28.446 13.7153 30.4257 16.2239 31.3022C17.4631 31.7405 17.7049 31.7707 20.1229 31.8312C22.6467 31.8916 22.7072 31.8765 23.1152 31.5289C23.4628 31.2267 23.5383 31.0151 23.6592 29.8968C23.8104 28.3855 23.9917 27.8566 24.5358 27.2823C25.3216 26.4511 26.0772 26.8441 28.0267 29.0656C29.402 30.6373 30.3238 31.3778 31.4119 31.7858C32.0466 32.0276 32.4547 32.0427 35.4016 31.937C38.8623 31.8312 39.4064 31.7103 39.6028 31.1058C39.9051 30.1386 38.8926 28.6425 35.9003 25.5897C33.2405 22.8846 33.1045 22.6277 33.6183 21.6001C33.7997 21.2676 34.6611 20.0284 35.5376 18.8647C38.409 15.0262 39.4819 13.2731 39.6331 12.0943C39.7086 11.5654 39.6633 11.4596 39.3157 11.2329C38.9681 11.0062 38.4845 10.976 35.0389 10.9911C31.7897 11.0214 31.1097 11.0516 30.8981 11.248C30.747 11.3841 30.3843 12.0792 30.082 12.7895C28.4499 16.5978 25.639 20.6782 24.6415 20.6782C23.7046 20.6782 23.5232 19.6657 23.629 15.2528C23.7197 11.112 23.6592 10.8249 22.6165 10.3564C22.0271 10.0844 21.5737 10.0391 19.4278 10.0088C18.0525 9.9786 16.5413 10.0239 16.0728 10.0995Z" fill="white"/>
</g>
</g>
</svg>
