<svg width="40" height="40" viewBox="0 0 40 40" fill="none" xmlns="http://www.w3.org/2000/svg">
<g id="youtube">
<rect id="Rectangle 35" width="40" height="40" fill="#111314"/>
<g id="Group">
<path id="Vector" d="M13.7381 5.03008C9.82801 5.17084 5.88661 5.43673 5.19843 5.62441C3.93156 5.95286 3.22774 6.35951 2.30495 7.2823C1.3978 8.17381 0.819103 9.36248 0.443732 11.0986C0.0214394 13.038 -0.134965 20.7644 0.130923 25.8163C0.36553 29.8828 0.928586 31.7127 2.36751 33.0422C4.11924 34.6531 5.18279 34.8408 14.2073 35.138C21.8712 35.3882 32.8508 35.0754 34.931 34.5593C37.3083 33.9493 38.8098 32.2445 39.4823 29.3979C40.2174 26.2073 40.1549 13.2413 39.3885 10.4417C38.7942 8.26765 37.7932 6.92257 36.1822 6.14055C35.0561 5.57749 34.1646 5.42109 31.1772 5.24904C28.4714 5.077 16.4439 4.93623 13.7381 5.03008ZM31.1772 7.59511C34.321 7.7828 35.1186 8.00176 36.0102 8.90891C36.7453 9.64401 37.1206 10.6137 37.3865 12.5219C37.6368 14.2267 37.6368 26.1916 37.3865 27.787C37.0424 30.0861 36.3386 31.3999 35.1186 32.0099C34.2897 32.4478 32.8039 32.5729 26.1254 32.7919C20.4322 32.9639 10.4536 32.7919 7.18477 32.4635C4.07232 32.135 3.11825 31.1497 2.60212 27.787C2.35187 26.1916 2.35187 14.2267 2.60212 12.5062C2.94621 9.97246 3.85335 8.53354 5.38612 8.00176C6.05866 7.7828 9.39008 7.53255 13.8163 7.37614C16.616 7.2823 28.4558 7.42307 31.1772 7.59511Z" fill="white"/>
<path id="Vector_2" d="M15.8496 13.4603C14.9268 13.9295 14.9112 13.9608 14.8642 19.0909C14.8017 24.5338 14.8486 24.9873 15.4586 25.613C16.2719 26.4106 16.5691 26.3168 21.6209 23.611C24.1234 22.2659 26.3287 21.0147 26.532 20.827C26.7197 20.6393 26.923 20.2326 26.97 19.9355C27.1264 18.9032 26.8292 18.6686 21.793 15.9159C19.2123 14.5082 16.9444 13.3352 16.7255 13.2883C16.5065 13.257 16.0998 13.3352 15.8496 13.4603ZM20.7451 18.0273C22.4186 18.9345 23.7168 19.7321 23.6385 19.7947C23.4821 19.9511 17.398 23.2356 17.2729 23.2356C17.226 23.2356 17.179 21.6403 17.179 19.7009C17.179 16.4007 17.1947 16.1661 17.4606 16.26C17.6013 16.3225 19.0872 17.1202 20.7451 18.0273Z" fill="white"/>
</g>
</g>
</svg>
